{
	"asset":{
		"generator":"Khronos glTF Blender I/O v3.5.30",
		"version":"2.0"
	},
	"scene":0,
	"scenes":[
		{
			"name":"Scene",
			"nodes":[
				0,
				1,
				2
			]
		}
	],
	"nodes":[
		{
			"mesh":0,
			"name":"thimbles.002",
			"translation":[
				-2.9398274421691895,
				9.93550968170166,
				0
			]
		},
		{
			"mesh":1,
			"name":"galvanized_hook.002",
			"translation":[
				-5.977917671203613,
				2.8307747840881348,
				0
			]
		},
		{
			"mesh":2,
			"name":"screw.002",
			"translation":[
				-5.9062700271606445,
				0.9935778379440308,
				0
			]
		}
	],
	"materials":[
		{
			"name":"PN_2001",
			"normalTexture":{
				"index":0
			},
			"occlusionTexture":{
				"index":1
			},
			"pbrMetallicRoughness":{
				"baseColorTexture":{
					"index":2
				},
				"metallicRoughnessTexture":{
					"index":1
				}
			}
		}
	],
	"meshes":[
		{
			"name":"thimbles.001",
			"primitives":[
				{
					"attributes":{
						"POSITION":0,
						"TEXCOORD_0":1,
						"NORMAL":2
					},
					"indices":3,
					"material":0
				}
			]
		},
		{
			"name":"galvanized_hook.001",
			"primitives":[
				{
					"attributes":{
						"POSITION":4,
						"TEXCOORD_0":5,
						"NORMAL":6
					},
					"indices":7,
					"material":0
				}
			]
		},
		{
			"name":"screw.001",
			"primitives":[
				{
					"attributes":{
						"POSITION":8,
						"TEXCOORD_0":9,
						"NORMAL":10
					},
					"indices":11,
					"material":0
				}
			]
		}
	],
	"textures":[
		{
			"sampler":0,
			"source":0
		},
		{
			"sampler":0,
			"source":1
		},
		{
			"sampler":0,
			"source":2
		}
	],
	"images":[
		{
			"mimeType":"image/png",
			"name":"Image_2",
			"uri":"Image_2.png"
		},
		{
			"mimeType":"image/png",
			"name":"Image_1",
			"uri":"Image_1.png"
		},
		{
			"mimeType":"image/png",
			"name":"Image_0",
			"uri":"Image_0.png"
		}
	],
	"accessors":[
		{
			"bufferView":0,
			"componentType":5126,
			"count":7174,
			"max":[
				2.1551904678344727,
				2.9158592224121094,
				0.5252174139022827
			],
			"min":[
				-2.2888498306274414,
				-3.5298314094543457,
				-0.5250717401504517
			],
			"type":"VEC3"
		},
		{
			"bufferView":1,
			"componentType":5126,
			"count":7174,
			"type":"VEC2"
		},
		{
			"bufferView":2,
			"componentType":5126,
			"count":7174,
			"type":"VEC3"
		},
		{
			"bufferView":3,
			"componentType":5123,
			"count":41568,
			"type":"SCALAR"
		},
		{
			"bufferView":4,
			"componentType":5126,
			"count":10460,
			"max":[
				1.5740571022033691,
				1.430875301361084,
				0.7042310237884521
			],
			"min":[
				-1.5515508651733398,
				-1.452103614807129,
				-0.7042310237884521
			],
			"type":"VEC3"
		},
		{
			"bufferView":5,
			"componentType":5126,
			"count":10460,
			"type":"VEC2"
		},
		{
			"bufferView":6,
			"componentType":5126,
			"count":10460,
			"type":"VEC3"
		},
		{
			"bufferView":7,
			"componentType":5123,
			"count":52416,
			"type":"SCALAR"
		},
		{
			"bufferView":8,
			"componentType":5126,
			"count":23274,
			"max":[
				1.3461742401123047,
				0.4721919298171997,
				0.596632719039917
			],
			"min":[
				-1.3860669136047363,
				-0.427632212638855,
				-0.5981447696685791
			],
			"type":"VEC3"
		},
		{
			"bufferView":9,
			"componentType":5126,
			"count":23274,
			"type":"VEC2"
		},
		{
			"bufferView":10,
			"componentType":5126,
			"count":23274,
			"type":"VEC3"
		},
		{
			"bufferView":11,
			"componentType":5123,
			"count":87768,
			"type":"SCALAR"
		}
	],
	"bufferViews":[
		{
			"buffer":0,
			"byteLength":86088,
			"byteOffset":0,
			"target":34962
		},
		{
			"buffer":0,
			"byteLength":57392,
			"byteOffset":86088,
			"target":34962
		},
		{
			"buffer":0,
			"byteLength":86088,
			"byteOffset":143480,
			"target":34962
		},
		{
			"buffer":0,
			"byteLength":83136,
			"byteOffset":229568,
			"target":34963
		},
		{
			"buffer":0,
			"byteLength":125520,
			"byteOffset":312704,
			"target":34962
		},
		{
			"buffer":0,
			"byteLength":83680,
			"byteOffset":438224,
			"target":34962
		},
		{
			"buffer":0,
			"byteLength":125520,
			"byteOffset":521904,
			"target":34962
		},
		{
			"buffer":0,
			"byteLength":104832,
			"byteOffset":647424,
			"target":34963
		},
		{
			"buffer":0,
			"byteLength":279288,
			"byteOffset":752256,
			"target":34962
		},
		{
			"buffer":0,
			"byteLength":186192,
			"byteOffset":1031544,
			"target":34962
		},
		{
			"buffer":0,
			"byteLength":279288,
			"byteOffset":1217736,
			"target":34962
		},
		{
			"buffer":0,
			"byteLength":175536,
			"byteOffset":1497024,
			"target":34963
		}
	],
	"samplers":[
		{
			"magFilter":9729,
			"minFilter":9987
		}
	],
	"buffers":[
		{
			"byteLength":1672560,
			"uri":"PN%202001%20seperatable.bin"
		}
	]
}
